<?xml version="1.0" encoding="utf-8"?>
<!-- Generator: Adobe Illustrator 16.0.0, SVG Export Plug-In . SVG Version: 6.00 Build 0)  -->
<!DOCTYPE svg PUBLIC "-//W3C//DTD SVG 1.1//EN" "../../../../../../www.w3.org/Graphics/SVG/1.1/DTD/svg11.dtd">
<svg version="1.1" id="Layer_1" xmlns="http://www.w3.org/2000/svg" xmlns:xlink="../../../../../../www.w3.org/1999/xlink" x="0px" y="0px"
	 width="56.693px" height="56.693px" viewBox="0 0 56.693 56.693" enable-background="new 0 0 56.693 56.693" xml:space="preserve">
<g>
	<polygon fill="#FFFFFF" points="28.748,20.042 18.21,26.546 28.748,33.052 39.286,26.546 	"/>
	<path fill="#FFFFFF" d="M28.348,5.158c-13.601,0-24.625,11.023-24.625,24.623s11.024,24.625,24.625,24.625
		c13.598,0,24.623-11.025,24.623-24.625S41.945,5.158,28.348,5.158z M39.243,40.694L28.77,46.971l-10.475-6.277v-2.299l3.14,2.051
		l7.335-6.084l7.334,6.084l3.139-2.051V40.694z M36.062,39.149l-7.313-6.099l-7.312,6.099l-10.452-6.818l7.227-5.785l-7.227-5.785
		l10.452-6.816l7.312,6.099l7.313-6.099l10.451,6.816l-7.228,5.785l7.228,5.785L36.062,39.149z"/>
</g>
</svg>
